<svg width="18" height="17" viewBox="0 0 18 17" fill="none" xmlns="http://www.w3.org/2000/svg">
<path d="M9 14.275L4.85 16.775C4.66667 16.8917 4.475 16.9417 4.275 16.925C4.075 16.9083 3.9 16.8417 3.75 16.725C3.6 16.6083 3.48333 16.4623 3.4 16.287C3.31667 16.1117 3.3 15.916 3.35 15.7L4.45 10.975L0.775 7.80001C0.608333 7.65001 0.504333 7.47901 0.463 7.28701C0.421667 7.09501 0.434 6.90768 0.5 6.72501C0.566667 6.54168 0.666666 6.39168 0.8 6.27501C0.933333 6.15835 1.11667 6.08335 1.35 6.05001L6.2 5.62501L8.075 1.17501C8.15833 0.975013 8.28767 0.825012 8.463 0.725012C8.63833 0.625012 8.81733 0.575012 9 0.575012C9.18333 0.575012 9.36233 0.625012 9.537 0.725012C9.71167 0.825012 9.841 0.975013 9.925 1.17501L11.8 5.62501L16.65 6.05001C16.8833 6.08335 17.0667 6.15835 17.2 6.27501C17.3333 6.39168 17.4333 6.54168 17.5 6.72501C17.5667 6.90835 17.5793 7.09601 17.538 7.28801C17.4967 7.48001 17.3923 7.65068 17.225 7.80001L13.55 10.975L14.65 15.7C14.7 15.9167 14.6833 16.1127 14.6 16.288C14.5167 16.4633 14.4 16.609 14.25 16.725C14.1 16.8417 13.925 16.9083 13.725 16.925C13.525 16.9417 13.3333 16.8917 13.15 16.775L9 14.275Z" fill="#E0E0E0"/>
</svg>
