<svg width="16" height="16" viewBox="0 0 16 16" fill="none" xmlns="http://www.w3.org/2000/svg">
<g clip-path="url(#clip0_0_66)">
<path d="M10.606 8.08202L16 11.492V4.52802L10.606 8.08202Z" fill="#E0E0E0"/>
<path d="M0 4.52802V11.492L5.394 8.08202L0 4.52802Z" fill="#E0E0E0"/>
<path d="M15 2.5H0.999999C0.500999 2.5 0.104999 2.872 0.0299988 3.351L8 8.602L15.97 3.351C15.895 2.872 15.499 2.5 15 2.5Z" fill="#E0E0E0"/>
<path d="M9.69 8.686L8.275 9.618C8.191 9.673 8.096 9.7 8 9.7C7.904 9.7 7.809 9.673 7.725 9.618L6.31 8.685L0.0319977 12.656C0.108998 13.131 0.502998 13.5 0.999998 13.5H15C15.497 13.5 15.891 13.131 15.968 12.656L9.69 8.686Z" fill="#E0E0E0"/>
</g>
<defs>
<clipPath id="clip0_0_66">
<rect width="16" height="16" fill="white"/>
</clipPath>
</defs>
</svg>
